<?xml version="1.0" encoding="utf-8"?>
<!-- Generator: Adobe Illustrator 16.0.0, SVG Export Plug-In . SVG Version: 6.00 Build 0)  -->
<!DOCTYPE svg PUBLIC "-//W3C//DTD SVG 1.1//EN" "http://www.w3.org/Graphics/SVG/1.1/DTD/svg11.dtd">
<svg version="1.1" id="Layer_1" xmlns="http://www.w3.org/2000/svg" xmlns:xlink="http://www.w3.org/1999/xlink" x="0px" y="0px"
	 width="783.207px" height="400.904px" viewBox="-1 -1 783.207 400.904" enable-background="new -1 -1 783.207 400.904"
	 xml:space="preserve">
<g>
	<g>
		<path fill="#3F51B5" d="M129.147,249.969c89.888,49.438,179.711,98.844,269.535,148.246c-0.009,0.16-0.018,0.319-0.024,0.479
			c-0.628,0.07-1.256,0.201-1.884,0.202c-48.479,0.01-96.956,0.021-145.436-0.063c-1.137-0.002-2.603-0.789-3.357-1.682
			c-16.485-19.467-32.89-39.002-49.313-58.521c-23.322-27.718-46.647-55.433-69.975-83.146c-1.165-1.384-2.352-2.748-4.004-4.679
			c0,49.429,0,98.142,0,146.854c-0.159,0.041-0.319,0.083-0.479,0.124c-0.358-0.568-0.769-1.112-1.071-1.709
			c-22.447-44.135-44.885-88.272-67.328-132.41c-11.982-23.563-23.993-47.109-35.951-70.686c-3.932-7.751-8.14-15.397-11.503-23.394
			c-4.568-10.859-6.908-22.34-7.886-34.116c-2.071-24.961,2.671-48.535,14.82-70.386c17.099-30.749,42.771-50.944,76.647-60.6
			c13.178-3.755,26.675-5.104,40.3-4.23c54.643,3.501,99.008,41.001,112.912,91.62c3.906,14.22,5.257,28.685,3.934,43.394
			c-3.121,34.662-18.106,63.203-44.616,85.584c-16.815,14.195-36.226,23.174-57.986,26.82
			C140.828,248.622,135.111,249.19,129.147,249.969z M124.802,199.34c41.314-0.513,74.224-32.85,74.331-74.233
			c0.108-41.771-32.987-74.487-74.129-74.601c-41.294-0.113-74.563,32.564-74.573,74.389
			C50.419,166.098,83.065,198.804,124.802,199.34z"/>
	</g>
	<g>
		<path fill="#3F51B5" d="M256.412,202.084c0-9.316,1.846-17.71,5.537-25.181s8.877-13.213,15.557-17.227
			c6.681-4.014,14.355-6.021,23.027-6.021c12.832,0,23.247,4.131,31.245,12.393c7.998,8.263,12.318,19.22,12.964,32.871l0.088,5.011
			c0,9.375-1.802,17.754-5.404,25.137c-3.604,7.383-8.761,13.096-15.47,17.139c-6.71,4.043-14.458,6.064-23.246,6.064
			c-13.419,0-24.156-4.47-32.213-13.404c-8.057-8.934-12.085-20.844-12.085-35.727V202.084z M277.77,203.93
			c0,9.784,2.021,17.444,6.063,22.981s9.668,8.308,16.876,8.308c7.206,0,12.816-2.813,16.83-8.438s6.021-13.857,6.021-24.697
			c0-9.609-2.065-17.227-6.196-22.852s-9.742-8.438-16.831-8.438c-6.974,0-12.511,2.77-16.611,8.307
			C279.82,184.638,277.77,192.914,277.77,203.93z"/>
		<path fill="#3F51B5" d="M389.654,132.299v23.115h16.787v15.82h-16.787v53.086c0,3.633,0.717,6.254,2.153,7.865
			c1.436,1.612,3.999,2.418,7.689,2.418c2.461,0,4.951-0.293,7.472-0.879v16.522c-4.864,1.349-9.551,2.021-14.063,2.021
			c-16.406,0-24.608-9.054-24.608-27.158v-53.877h-15.646v-15.82h15.646v-23.115L389.654,132.299L389.654,132.299z"/>
		<path fill="#3F51B5" d="M479.566,250.512c-0.938-1.816-1.758-4.775-2.461-8.877c-6.797,7.09-15.117,10.635-24.961,10.635
			c-9.551,0-17.344-2.726-23.379-8.174c-6.035-5.449-9.053-12.188-9.053-20.216c0-10.137,3.766-17.916,11.295-23.336
			c7.526-5.418,18.295-8.129,32.299-8.129h13.096v-6.239c0-4.923-1.377-8.862-4.131-11.821c-2.754-2.958-6.943-4.438-12.568-4.438
			c-4.862,0-8.848,1.217-11.952,3.647c-3.105,2.432-4.658,5.522-4.658,9.271h-21.357c0-5.215,1.729-10.093,5.187-14.634
			c3.457-4.54,8.159-8.1,14.106-10.679c5.945-2.578,12.582-3.867,19.906-3.867c11.133,0,20.01,2.799,26.631,8.394
			c6.621,5.597,10.021,13.463,10.195,23.6v42.891c0,8.556,1.201,15.381,3.604,20.479v1.494L479.566,250.512L479.566,250.512z
			 M456.1,235.131c4.219,0,8.188-1.024,11.91-3.075c3.721-2.052,6.518-4.806,8.393-8.263v-17.93h-11.514
			c-7.91,0-13.857,1.377-17.842,4.131c-3.985,2.754-5.978,6.65-5.978,11.689c0,4.102,1.363,7.369,4.088,9.799
			C447.884,233.915,451.529,235.131,456.1,235.131z"/>
		<path fill="#3F51B5" d="M542.848,250.512H521.49v-135h21.357L542.848,250.512L542.848,250.512z"/>
		<path fill="#3F51B5" d="M566.139,130.629c0-3.306,1.041-6.051,3.121-8.235c2.078-2.186,5.053-3.278,8.92-3.278
			s6.854,1.093,8.965,3.278c2.109,2.185,3.164,4.93,3.164,8.235c0,3.249-1.055,5.951-3.164,8.105
			c-2.109,2.156-5.098,3.232-8.965,3.232s-6.842-1.076-8.92-3.232C567.18,136.58,566.139,133.878,566.139,130.629z M588.814,250.512
			h-21.356v-95.099h21.356V250.512z"/>
		<path fill="#3F51B5" d="M634.869,233.461h50.625v17.052h-77.168v-13.976l48.252-63.896h-47.372v-17.228h74.442v13.535
			L634.869,233.461z"/>
		<path fill="#3F51B5" d="M743.063,252.27c-13.535,0-24.508-4.265-32.914-12.789c-8.408-8.525-12.613-19.877-12.613-34.058v-2.637
			c0-9.493,1.832-17.974,5.494-25.444c3.66-7.472,8.803-13.285,15.424-17.446c6.621-4.16,14.005-6.24,22.148-6.24
			c12.949,0,22.953,4.131,30.016,12.393c7.062,8.263,10.591,19.951,10.591,35.069v8.613h-62.14
			c0.646,7.852,3.267,14.063,7.867,18.633c4.6,4.57,10.385,6.855,17.357,6.855c9.784,0,17.754-3.955,23.905-11.865l11.515,10.985
			c-3.81,5.685-8.892,10.095-15.248,13.228C758.105,250.702,750.973,252.27,743.063,252.27z M740.514,170.795
			c-5.859,0-10.59,2.053-14.193,6.152c-3.604,4.102-5.904,9.814-6.899,17.139h40.692v-1.582c-0.469-7.147-2.373-12.554-5.713-16.216
			C751.061,172.627,746.432,170.795,740.514,170.795z"/>
	</g>
</g>
</svg>
