<?xml version="1.0" encoding="utf-8"?>
<!-- Generator: Adobe Illustrator 16.0.0, SVG Export Plug-In . SVG Version: 6.00 Build 0)  -->
<!DOCTYPE svg PUBLIC "-//W3C//DTD SVG 1.1//EN" "http://www.w3.org/Graphics/SVG/1.1/DTD/svg11.dtd">
<svg version="1.1" id="Layer_1" xmlns="http://www.w3.org/2000/svg" xmlns:xlink="http://www.w3.org/1999/xlink" x="0px" y="0px"
	 width="400.682px" height="400.906px" viewBox="-1 -1.002 400.682 400.906" enable-background="new -1 -1.002 400.682 400.906"
	 xml:space="preserve">
<g>
	<g>
		<path fill="#FFFFFF" d="M129.147,249.969c89.888,49.438,179.711,98.844,269.535,148.246c-0.009,0.16-0.018,0.319-0.024,0.479
			c-0.628,0.07-1.256,0.201-1.884,0.202c-48.479,0.01-96.956,0.021-145.436-0.063c-1.137-0.002-2.603-0.789-3.357-1.682
			c-16.485-19.467-32.89-39.002-49.313-58.521c-23.322-27.718-46.647-55.433-69.975-83.146c-1.165-1.384-2.352-2.748-4.004-4.679
			c0,49.429,0,98.142,0,146.854c-0.159,0.041-0.319,0.083-0.479,0.124c-0.358-0.568-0.769-1.112-1.071-1.709
			c-22.447-44.135-44.885-88.272-67.328-132.41c-11.982-23.563-23.993-47.109-35.951-70.686c-3.932-7.751-8.14-15.397-11.503-23.394
			c-4.568-10.859-6.908-22.34-7.886-34.116c-2.071-24.961,2.671-48.535,14.82-70.386c17.099-30.749,42.771-50.944,76.647-60.6
			c13.178-3.755,26.675-5.104,40.3-4.23c54.643,3.501,99.008,41.001,112.912,91.62c3.906,14.22,5.257,28.685,3.934,43.394
			c-3.121,34.662-18.106,63.203-44.616,85.584c-16.815,14.195-36.226,23.174-57.986,26.82
			C140.828,248.622,135.111,249.19,129.147,249.969z M124.802,199.34c41.314-0.513,74.224-32.85,74.331-74.233
			c0.108-41.771-32.987-74.487-74.129-74.601c-41.294-0.113-74.563,32.564-74.573,74.389
			C50.419,166.098,83.065,198.804,124.802,199.34z"/>
	</g>
</g>
</svg>
